<?xml version="1.0" encoding="utf-8"?>
<!-- Generator: Adobe Illustrator 26.0.2, SVG Export Plug-In . SVG Version: 6.00 Build 0)  -->
<svg     
	width="0"
    height="0" 
    preserveAspectRatio="none">
	<clipPath id="clip-path" >
		<g>
			<path d="M337,871c-112.3,0-224.6,0-337,0C0,580.7,0,290.3,0,0c112.7,0,225.3,0,338,0c-0.1,1-0.3,2-0.3,3c0,37.6,0,75.3,0,112.9
				c0,1.1,0.3,2.2,0.4,3.3c91.5,0,182.7,0,274.4,0c0-2.3,0-4.3,0-6.3c0-28.8,0-57.6,0-86.5c0-8.8,0.3-17.6,0.5-26.5
				c118.6,0,237.3,0,356,0c0,290.3,0,580.7,0,871c-118.7,0-237.3,0-356,0c-0.1-3.3-0.2-6.7-0.2-10c0-65.3,0-130.6,0-196
				c0-1.9,0-3.9,0-5.8c-92.3,0-183.8,0-275.8,0C337,730.1,337,800.5,337,871z"/>
		</g>
	</clipPath>
</svg>
